<?xml version="1.0" standalone="no"?>
<!DOCTYPE svg PUBLIC "-//W3C//DTD SVG 20010904//EN"
 "http://www.w3.org/TR/2001/REC-SVG-20010904/DTD/svg10.dtd">
<svg version="1.0" xmlns="http://www.w3.org/2000/svg"
 width="420.000000pt" height="186.000000pt" viewBox="0 0 420.000000 186.000000"
 preserveAspectRatio="xMidYMid meet">

<g transform="translate(0.000000,186.000000) scale(0.100000,-0.100000)"
fill="#000" stroke="none">
<path d="M3077 1837 l-37 -11 7 -50 c11 -69 10 -509 -1 -798 -9 -227 -8 -239
10 -259 18 -19 19 -44 24 -333 4 -238 8 -317 18 -329 20 -24 99 -48 179 -54
60 -5 85 -2 156 21 196 61 338 215 393 426 21 83 21 260 0 352 -20 87 -76 197
-127 253 -148 161 -383 180 -511 42 l-38 -40 0 396 c0 444 7 406 -73 384z
m307 -737 c68 -41 100 -139 116 -357 13 -160 2 -378 -25 -507 -28 -132 -88
-196 -184 -196 -44 0 -57 4 -81 28 -52 52 -55 81 -55 512 l0 395 30 53 c46 85
130 115 199 72z"/>
<path d="M10 1811 c0 -16 9 -19 71 -23 63 -3 74 -7 95 -31 l24 -28 0 -798 c0
-926 11 -839 -108 -850 -76 -7 -88 -12 -79 -35 5 -12 59 -14 361 -13 267 2
356 5 356 14 0 12 -13 17 -70 28 -60 11 -91 27 -101 52 -5 13 -9 206 -9 429
l0 404 270 0 270 0 0 -402 c0 -304 -3 -409 -13 -428 -12 -25 -46 -39 -131 -57
-45 -9 -59 -30 -24 -37 13 -3 180 -7 371 -9 315 -4 348 -2 345 12 -2 11 -24
20 -68 29 -83 16 -106 32 -122 84 -19 63 -19 1529 0 1574 15 36 40 50 108 59
70 10 84 15 84 31 0 12 -55 14 -364 14 -359 0 -397 -3 -368 -32 5 -5 34 -13
63 -17 66 -9 74 -13 97 -54 15 -28 17 -71 20 -361 3 -263 1 -331 -10 -337 -7
-5 -129 -9 -271 -9 l-258 0 3 356 c3 413 -4 386 113 399 60 6 66 9 63 28 l-3
22 -357 3 c-346 2 -358 2 -358 -17z m418 -917 c25 -28 27 -42 11 -77 -29 -64
-136 -60 -158 6 -30 85 85 141 147 71z m-75 -184 l14 -21 37 22 c21 12 36 16
36 10 0 -7 -16 -21 -35 -32 -43 -26 -46 -49 -6 -49 17 0 33 -4 36 -10 4 -6
-23 -10 -74 -10 l-81 0 0 36 c0 68 42 99 73 54z m-60 -173 c-7 -44 16 -67 66
-67 56 0 75 19 68 66 -6 36 -5 37 8 20 51 -67 -52 -150 -123 -100 -31 21 -44
58 -32 89 13 35 20 31 13 -8z m147 -157 c0 -6 -33 -10 -80 -10 -47 0 -80 4
-80 10 0 6 33 10 80 10 47 0 80 -4 80 -10z m0 -90 c0 -5 -28 -10 -62 -12 l-63
-3 63 -24 c34 -13 62 -29 62 -36 0 -8 -27 -24 -61 -37 l-60 -23 57 -5 c34 -3
59 -10 62 -18 3 -10 -14 -12 -74 -10 -63 2 -79 6 -82 19 -2 12 14 23 55 39 32
13 62 26 66 30 5 4 -20 19 -55 32 -38 15 -64 31 -66 41 -3 15 7 17 77 17 45 0
81 -4 81 -10z"/>
<path d="M307 882 c-21 -23 -22 -46 -1 -66 18 -18 76 -21 105 -6 23 13 25 53
3 74 -22 22 -87 21 -107 -2z"/>
<path d="M302 698 c-7 -7 -12 -22 -12 -35 0 -19 5 -23 30 -23 26 0 30 3 30 29
0 17 -6 31 -16 35 -20 8 -18 8 -32 -6z"/>
<path d="M2955 1810 c-22 -5 -93 -12 -158 -16 -106 -6 -140 -15 -123 -31 3 -3
35 -9 72 -12 48 -5 70 -13 80 -26 12 -16 14 -162 14 -851 0 -458 3 -839 6
-848 8 -22 18 -20 65 11 35 23 39 30 34 52 -16 62 -45 237 -60 367 -17 156
-15 174 34 230 48 54 54 109 48 410 -3 148 -11 340 -18 427 -8 97 -9 161 -3
167 5 5 9 -9 9 -38 0 -26 7 -141 15 -257 17 -260 18 -584 2 -642 -7 -23 -28
-60 -47 -83 -31 -37 -35 -48 -35 -100 0 -59 33 -330 49 -398 5 -22 7 37 3 152
-4 160 -3 188 9 184 15 -5 21 -28 42 -163 l15 -90 1 137 c1 88 5 139 12 144
21 13 29 -21 30 -131 0 -71 3 -103 9 -90 5 11 9 97 9 191 1 163 0 173 -21 200
-21 25 -23 40 -23 134 0 58 6 226 14 375 13 257 9 508 -8 573 -8 30 -19 33
-76 22z"/>
<path d="M1582 1142 c2 -13 18 -19 60 -23 32 -4 64 -12 72 -18 13 -11 15 -82
18 -449 4 -495 5 -499 83 -577 52 -52 116 -75 209 -75 89 0 166 34 249 109
l57 53 0 -81 c0 -45 4 -81 9 -81 4 0 35 14 67 30 70 36 129 48 289 58 111 6
120 9 120 27 0 18 -8 21 -75 25 -41 3 -81 9 -87 13 -10 6 -13 68 -13 251 0
134 -3 358 -7 499 l-6 257 -211 0 c-116 0 -218 -5 -226 -10 -24 -15 0 -29 60
-32 47 -3 56 -7 67 -28 10 -19 13 -125 13 -434 0 -398 -1 -411 -21 -454 -23
-47 -83 -97 -129 -107 -45 -10 -82 13 -110 70 l-25 50 -2 345 c-1 190 -2 402
-3 472 l0 127 -231 0 c-211 0 -230 -1 -227 -17z"/>
<path d="M2955 350 c3 -63 5 -152 5 -197 0 -82 0 -83 25 -83 31 0 32 9 4 195
-28 198 -40 227 -34 85z"/>
<path d="M3031 249 c-1 -156 1 -178 15 -183 9 -4 19 -4 21 -2 3 3 0 36 -7 75
-6 38 -15 118 -19 178 -8 107 -8 107 -10 -68z"/>
<path d="M3959 357 c-103 -70 -107 -246 -6 -321 22 -16 43 -21 92 -21 57 0 67
3 96 30 42 40 59 83 59 150 0 65 -24 120 -70 159 -42 35 -121 37 -171 3z"/>
<path d="M3011 224 c0 -11 3 -14 6 -6 3 7 2 16 -1 19 -3 4 -6 -2 -5 -13z"/>
</g>
</svg>
