<?xml version="1.0" standalone="no"?>
<!DOCTYPE svg PUBLIC "-//W3C//DTD SVG 20010904//EN"
 "http://www.w3.org/TR/2001/REC-SVG-20010904/DTD/svg10.dtd">
<svg version="1.0" xmlns="http://www.w3.org/2000/svg"
 width="512.000000pt" height="512.000000pt" viewBox="0 0 512.000000 512.000000"
 preserveAspectRatio="xMidYMid meet">
<metadata>
Created by potrace 1.14, written by Peter Selinger 2001-2017
</metadata>
<g transform="translate(0.000000,512.000000) scale(0.100000,-0.100000)"
fill="#000000" stroke="none">
<path d="M148 4972 c-14 -2 -32 -10 -39 -19 -24 -28 12 -40 154 -46 144 -6
276 -29 320 -55 34 -21 75 -79 90 -129 15 -52 22 -3902 7 -4122 -13 -192 -22
-215 -103 -253 -73 -36 -202 -58 -331 -58 -76 0 -107 -4 -124 -16 -32 -22 -27
-43 16 -61 32 -14 77 -15 357 -9 176 3 435 11 575 17 140 6 334 8 430 4 96 -3
229 -8 295 -10 66 -2 185 -7 265 -10 115 -5 149 -4 164 8 33 25 -2 41 -130 61
-186 28 -216 35 -269 60 -58 27 -105 72 -122 118 -8 25 -12 315 -12 1136 l-1
1102 823 -2 822 -3 0 -1020 c0 -561 -4 -1065 -9 -1120 l-8 -100 -43 -41 c-65
-63 -228 -114 -367 -114 -61 0 -130 -27 -126 -49 7 -36 71 -39 798 -40 388 -1
827 -7 975 -13 402 -17 389 -17 393 9 5 35 -35 53 -144 63 -286 25 -397 94
-438 271 -35 155 -36 203 -36 2102 0 1622 2 1891 15 1978 22 146 45 188 123
228 54 28 102 39 242 55 197 23 260 41 234 66 -5 5 -484 10 -1064 11 -1090 4
-1100 3 -1100 -35 0 -24 54 -38 170 -46 63 -4 135 -14 159 -21 57 -17 131 -84
165 -151 60 -114 59 -105 63 -1029 3 -687 2 -848 -9 -856 -31 -25 -863 -40
-1390 -26 l-248 6 1 886 c0 1027 1 1044 81 1104 48 36 134 55 291 63 109 5
143 11 160 24 18 15 20 21 9 44 -6 14 -22 28 -34 30 -27 6 -2011 14 -2050 8z
m1143 -2444 c106 -36 166 -139 138 -240 -15 -59 -41 -91 -97 -124 -39 -23 -61
-29 -132 -32 -114 -6 -160 8 -220 66 -40 39 -49 55 -55 94 -15 103 29 188 120
229 47 22 192 26 246 7z m-149 -534 c11 -11 27 -33 34 -51 16 -37 13 -38 126
23 115 62 120 63 116 23 -3 -30 -10 -36 -110 -87 l-108 -54 0 -39 0 -39 110 0
110 0 0 -30 0 -30 -245 0 -245 0 0 95 c0 128 20 174 90 207 26 13 100 1 122
-18z m264 -426 c36 -57 38 -145 4 -206 -94 -167 -409 -151 -476 23 -20 54 -15
139 12 185 20 33 35 38 54 15 10 -13 9 -19 -6 -36 -28 -31 -27 -138 1 -169 45
-50 141 -74 235 -59 70 11 110 33 138 75 29 45 28 92 -3 138 -28 42 -30 47
-13 64 19 19 26 15 54 -30z m14 -488 l0 -30 -245 0 -245 0 0 30 0 30 245 0
245 0 0 -30z m0 -230 l0 -30 -202 -1 -203 0 80 -31 c94 -35 153 -57 253 -94
71 -25 73 -27 70 -57 -3 -30 -7 -32 -133 -78 -71 -25 -159 -57 -194 -70 l-64
-24 194 -5 194 -5 0 -30 0 -30 -240 0 -240 0 -3 46 -3 46 118 42 c124 45 235
86 268 100 25 11 19 13 -217 97 l-168 59 0 48 0 47 245 0 245 0 0 -30z"/>
<path d="M1092 2465 c-90 -25 -122 -61 -122 -135 0 -50 35 -93 95 -116 56 -21
204 -16 252 9 40 21 73 75 73 120 0 96 -159 161 -298 122z"/>
<path d="M1025 1949 c-37 -21 -45 -41 -45 -111 l0 -68 85 0 85 0 0 64 c0 53
-4 70 -22 90 -26 30 -74 41 -103 25z"/>
<path d="M4850 4776 c0 -4 7 -17 15 -29 8 -13 21 -50 29 -82 8 -33 15 -49 15
-34 1 37 -26 124 -44 139 -8 7 -15 9 -15 6z"/>
<path d="M4916 4535 c26 -367 22 -994 -10 -1490 -30 -458 -36 -573 -37 -745
-1 -105 3 -186 9 -202 6 -15 33 -51 61 -82 53 -59 58 -75 64 -206 3 -65 3 -65
5 13 3 111 -12 161 -59 199 -68 55 -73 82 -66 371 4 139 16 392 27 562 34 527
44 950 30 1269 -6 155 -16 304 -20 331 -8 44 -8 42 -4 -20z"/>
<path d="M4654 4418 c-11 -17 -5 -170 11 -313 l13 -120 -6 110 c-4 61 -7 161
-7 223 0 61 -1 112 -2 112 -1 0 -5 -5 -9 -12z"/>
<path d="M4686 3885 c2 -55 13 -254 24 -443 48 -844 34 -1227 -50 -1392 -12
-23 -49 -69 -81 -101 -73 -72 -101 -130 -106 -224 -5 -79 57 -569 108 -850 31
-172 85 -404 97 -417 11 -11 13 229 3 312 -6 57 -7 37 -3 -85 3 -108 1 -157
-6 -150 -32 32 -117 519 -183 1058 -21 174 -2 241 101 352 124 135 146 221
156 610 8 296 -25 1085 -56 1355 -9 72 -9 71 -4 -25z"/>
<path d="M4987 1276 c-4 -257 -6 -470 -4 -473 6 -6 19 721 15 842 -2 55 -7
-111 -11 -369z"/>
<path d="M4850 1581 c-14 -27 -13 -463 2 -790 9 -205 9 -266 0 -269 -14 -4
-16 -72 -3 -72 17 0 24 89 17 228 -3 76 -9 305 -12 509 -5 298 -4 376 6 388
24 29 35 -3 41 -123 l5 -117 2 113 c2 114 -6 152 -33 152 -8 0 -19 -9 -25 -19z"/>
<path d="M4644 1483 c-7 -50 2 -369 16 -533 8 -95 8 -95 4 25 -2 66 -7 197
-11 291 -6 162 -1 244 15 244 20 0 34 -55 57 -212 13 -95 36 -236 50 -313 14
-77 34 -212 44 -300 11 -88 19 -144 20 -125 2 64 -29 302 -59 460 -16 85 -36
214 -45 285 -17 142 -27 179 -52 207 -25 27 -31 22 -39 -29z"/>
<path d="M4912 1245 c-5 -310 79 -868 123 -823 4 4 -2 71 -14 150 -11 79 -22
161 -24 183 -3 36 -4 35 -5 -10 0 -27 7 -105 17 -173 9 -67 13 -118 9 -114
-27 27 -84 444 -97 707 -6 122 -8 144 -9 80z"/>
</g>
</svg>
